<?xml version="1.0" encoding="utf-8"?>

<svg version="1.1" id="Layer_1" xmlns="http://www.w3.org/2000/svg" xmlns:xlink="http://www.w3.org/1999/xlink" x="0px" y="0px"
	 viewBox="0 0 600 400" style="enable-background:new 0 0 600 400;" xml:space="preserve">
<style type="text/css">
	.st0{fill:none;stroke:#000000;}
	.st1{font-family:'ArialMT';}
	.st2{font-size:12px;}
</style>
<rect x="100" y="100" class="st0" width="400" height="200"/>
<g>
	<text transform="matrix(1 0 0 1 291.6592 90)" class="st1 st2">top</text>
</g>
<g>
	<text transform="matrix(1 0 0 1 73.9922 200)" class="st1 st2">left</text>
</g>
<g>
	<text transform="matrix(1 0 0 1 510 200)" class="st1 st2">right</text>
</g>
<g>
	<text transform="matrix(1 0 0 1 283.3242 200)" class="st1 st2">center</text>
</g>
<g>
	<text transform="matrix(1 0 0 1 281.6572 320.2979)" class="st1 st2">bottom</text>
</g>
<g>
	<text transform="matrix(1 0 0 1 110 200)" class="st1 st2">insideLeft</text>
</g>
<g>
	<text transform="matrix(1 0 0 1 430.6328 200)" class="st1 st2">insideRight</text>
</g>
<g>
	<text transform="matrix(1 0 0 1 274.6494 120.2979)" class="st1 st2">insideTop</text>
</g>
<g>
	<text transform="matrix(1 0 0 1 265.3154 290)" class="st1 st2">insideBottom</text>
</g>
<g>
	<text transform="matrix(1 0 0 1 110 120.2979)" class="st1 st2">insideTopLeft</text>
</g>
<g>
	<text transform="matrix(1 0 0 1 411.2852 120.2979)" class="st1 st2">insideTopRight</text>
</g>
<g>
	<text transform="matrix(1 0 0 1 110 290)" class="st1 st2">insideBottomLeft</text>
</g>
<g>
	<text transform="matrix(1 0 0 1 392.6172 290)" class="st1 st2">insideBottomRight</text>
</g>
</svg>
