<?xml version="1.0" encoding="utf-8"?>

<svg version="1.1" id="Layer_1" xmlns="http://www.w3.org/2000/svg" xmlns:xlink="http://www.w3.org/1999/xlink" x="0px" y="0px"
	 viewBox="0 0 700 400" style="enable-background:new 0 0 700 400;" xml:space="preserve">
<style type="text/css">
	.st0{fill:none;stroke:#666666;}
	.st1{font-family:'ArialMT';}
	.st2{font-size:12px;}
</style>
<path class="st0" d="M225,256.7l75-129.9c-61.9-35.7-138.1-35.7-200,0l75,129.9C190.5,247.8,209.5,247.8,225,256.7"/>
<g>
	<text transform="matrix(1 0 0 1 183.3242 300)" class="st1 st2">center</text>
</g>
<g>
	<text transform="matrix(1 0 0 1 200 90)" class="st1 st2">outside</text>
</g>
<g>
	<text transform="matrix(1 0 0 1 184.3232 175)" class="st1 st2">inside</text>
</g>
<path class="st0" d="M400,300c0-110.5,89.5-200,200-200V60c-132.5,0-240,107.5-240,240H400z"/>
<text transform="matrix(0.1795 -0.9838 0.9838 0.1795 383.3358 261.799)" class="st1 st2">i</text>
<text transform="matrix(0.2001 -0.9798 0.9798 0.2001 383.7937 259.1723)" class="st1 st2">n</text>
<text transform="matrix(0.228 -0.9736 0.9736 0.228 385.1344 252.6345)" class="st1 st2">s</text>
<text transform="matrix(0.2471 -0.969 0.969 0.2471 386.5184 246.7965)" class="st1 st2">i</text>
<text transform="matrix(0.2675 -0.9635 0.9635 0.2675 387.157 244.2069)" class="st1 st2">d</text>
<text transform="matrix(0.2966 -0.955 0.955 0.2966 388.9423 237.7765)" class="st1 st2">e</text>
<text transform="matrix(0.3284 -0.9445 0.9445 0.3284 390.9121 231.3982)" class="st1 st2">S</text>
<text transform="matrix(0.3527 -0.9357 0.9357 0.3527 393.5685 223.849)" class="st1 st2">t</text>
<text transform="matrix(0.374 -0.9274 0.9274 0.374 394.727 220.7215)" class="st1 st2">a</text>
<text transform="matrix(0.3964 -0.9181 0.9181 0.3964 397.2377 214.5383)" class="st1 st2">r</text>
<text transform="matrix(0.4118 -0.9113 0.9113 0.4118 398.8245 210.8703)" class="st1 st2">t</text>
<text transform="matrix(-0.9838 0.1795 -0.1795 -0.9838 561.7994 83.3367)" class="st1 st2">i</text>
<text transform="matrix(-0.9798 0.2001 -0.2001 -0.9798 559.173 83.7943)" class="st1 st2">n</text>
<text transform="matrix(-0.9736 0.228 -0.228 -0.9736 552.6342 85.1343)" class="st1 st2">s</text>
<text transform="matrix(-0.969 0.2471 -0.2471 -0.969 546.7951 86.5185)" class="st1 st2">i</text>
<text transform="matrix(-0.9635 0.2675 -0.2675 -0.9635 544.2071 87.1566)" class="st1 st2">d</text>
<text transform="matrix(-0.955 0.2966 -0.2966 -0.955 537.7756 88.9423)" class="st1 st2">e</text>
<text transform="matrix(-0.9445 0.3284 -0.3284 -0.9445 531.3983 90.912)" class="st1 st2">E</text>
<text transform="matrix(-0.933 0.3598 -0.3598 -0.933 523.8419 93.5506)" class="st1 st2">n</text>
<text transform="matrix(-0.9216 0.3881 -0.3881 -0.9216 517.6133 95.952)" class="st1 st2">d</text>
<text transform="matrix(0.9815 0.1913 -0.1913 0.9815 638.2067 83.3045)" class="st1 st2">E</text>
<text transform="matrix(0.9747 0.2237 -0.2237 0.9747 646.0615 84.847)" class="st1 st2">n</text>
<text transform="matrix(0.9675 0.253 -0.253 0.9675 652.5664 86.3395)" class="st1 st2">d</text>
</svg>
